<?xml version="1.0" encoding="UTF-8" standalone="no"?>
<!-- Created with Inkscape (http://www.inkscape.org/) -->

<svg
   width="122.07988mm"
   height="135.72479mm"
   viewBox="0 0 122.07988 135.72479"
   version="1.1"
   id="svg1"
   xmlns="http://www.w3.org/2000/svg"
   xmlns:svg="http://www.w3.org/2000/svg">
  <defs
     id="defs1" />
  <g
     id="layer1"
     transform="translate(-40.889297,-71.657005)">
    <g
       transform="matrix(0.02645833,0,0,-0.02645833,-33.590003,274.58596)"
       stroke="none"
       fill="#ffffff"
       id="g2">
      <path
         d="m 4930,7649 c -111,-29 -153,-51 -660,-349 -256,-150 -530,-311 -610,-358 -467,-273 -503,-297 -598,-394 -104,-106 -171,-221 -219,-375 l -28,-88 v -975 c 0,-1095 -4,-1036 75,-1207 48,-104 88,-161 169,-246 115,-119 53,-81 1543,-953 229,-134 322,-164 513,-164 140,0 231,19 347,73 66,30 969,553 1413,818 99,59 210,133 247,166 134,115 232,269 280,438 l 22,80 4,935 c 3,986 2,1028 -42,1157 -62,182 -193,356 -346,460 -25,16 -286,171 -580,343 -294,172 -627,367 -740,433 -247,144 -320,180 -424,207 -105,27 -262,26 -366,-1 z M 4390,5995 v -265 h 240 240 v -200 -200 h -240 -240 v -302 c 0,-388 10,-512 46,-586 49,-101 155,-140 329,-122 50,5 93,10 98,10 4,0 7,-87 7,-194 v -194 l -67,-13 c -107,-22 -340,-16 -438,10 -122,32 -201,75 -276,150 -75,74 -111,138 -142,249 -19,72 -21,105 -25,535 l -3,457 h -125 -124 v 200 200 h 125 125 v 265 265 h 235 235 z m 1655,-250 c 39,-8 113,-36 165,-62 79,-39 110,-62 181,-133 73,-73 94,-101 132,-180 45,-95 67,-171 67,-236 v -34 l -236,2 -236,3 -19,62 c -26,82 -72,142 -134,173 -43,21 -63,25 -145,25 -83,0 -101,-4 -146,-27 -63,-33 -103,-77 -143,-160 -122,-246 -78,-670 81,-791 120,-92 344,-82 440,20 29,30 67,107 68,136 0,16 18,17 236,17 h 237 l -7,-41 c -21,-128 -92,-257 -206,-370 -73,-73 -102,-94 -191,-138 -144,-71 -258,-95 -429,-88 -149,6 -236,29 -360,92 -142,74 -262,198 -338,350 -71,143 -98,299 -89,528 10,278 81,467 236,630 123,130 250,200 425,233 89,17 313,11 411,-11 z"
         id="path1" />
    </g>
  </g>
</svg>
